<?xml version="1.0" encoding="UTF-8"?>
<svg version="1.1" xmlns="http://www.w3.org/2000/svg" width="512" height="512">
<path d="M0 0 C1.12656509 -0.00700928 2.25313019 -0.01401855 3.41383362 -0.02124023 C7.11012975 -0.03873802 10.80565021 -0.02722591 14.50195312 -0.01367188 C17.08687486 -0.01636913 19.67179559 -0.02025349 22.25671387 -0.02526855 C27.66327561 -0.03115253 33.06954987 -0.02302211 38.47607422 -0.00390625 C44.70308696 0.01785808 50.92957562 0.01080495 57.15657568 -0.01121187 C63.17729696 -0.03163726 69.19776443 -0.02936596 75.21852112 -0.01768494 C77.76689224 -0.01502582 80.31527683 -0.01825854 82.8636322 -0.02760315 C86.43157856 -0.03781681 89.99853331 -0.02219864 93.56640625 0 C94.60877945 -0.00809692 95.65115265 -0.01619385 96.72511292 -0.02453613 C105.2322943 0.07300381 112.70591309 1.80082383 119.03710938 7.75976562 C122.99310727 12.10129097 126.33564336 16.89834147 129.65625 21.73242188 C133.89962285 27.64263227 138.96288463 32.11967278 146.28320312 33.51757812 C148.87693708 33.61457169 151.44378498 33.65938466 154.03741455 33.65560913 C154.82331333 33.65843041 155.60921211 33.66125169 156.418926 33.66415846 C159.05501012 33.6724981 161.6910522 33.67384217 164.32714844 33.67529297 C166.21621316 33.67996168 168.10527675 33.68510534 169.99433899 33.69068909 C174.06436304 33.70196831 178.13437978 33.71040337 182.20441437 33.71680832 C188.64230576 33.72748994 195.08014464 33.74773542 201.51800537 33.76992798 C219.82561842 33.83184622 238.13322844 33.88585801 256.44091797 33.91894531 C266.55060156 33.93729666 276.66019721 33.96623888 286.76981616 34.00695002 C292.11883669 34.02801071 297.46774644 34.04347599 302.81681061 34.04575729 C307.84998625 34.04790641 312.88293124 34.06380283 317.91603661 34.09014702 C319.7606574 34.0973313 321.60530617 34.09944521 323.44993782 34.09604454 C325.97391559 34.09213559 328.49716181 34.10664992 331.02105713 34.12557983 C331.74597894 34.12005014 332.47090075 34.11452044 333.21778989 34.10882318 C340.7231938 34.2055726 347.47688753 36.72105654 353.28320312 41.51757812 C362.15405997 52.06498446 361.60546229 63.95520225 361.69726562 77.02148438 C361.71600197 78.71256936 361.73557717 80.40364525 361.75595093 82.0947113 C361.80701786 86.51850995 361.84677878 90.94233882 361.88409424 95.36627197 C361.92429445 99.8913912 361.97531327 104.41638746 362.02539062 108.94140625 C362.1218482 117.80004351 362.20634836 126.65875061 362.28320312 135.51757812 C363.17523438 134.60234375 364.06726563 133.68710938 364.98632812 132.74414062 C366.16835117 131.54335531 367.35065773 130.34284903 368.53320312 129.14257812 C369.11972656 128.53929687 369.70625 127.93601562 370.31054688 127.31445312 C370.88417969 126.734375 371.4578125 126.15429688 372.04882812 125.55664062 C372.57250977 125.02248535 373.09619141 124.48833008 373.63574219 123.93798828 C377.26008153 120.81315036 380.36979703 120.20324444 385.09570312 120.14257812 C386.09214844 120.11421875 387.08859375 120.08585937 388.11523438 120.05664062 C395.11377498 121.07492397 399.92582676 125.71688627 404.72167969 130.55200195 C405.62306671 131.4430941 405.62306671 131.4430941 406.54266357 132.35218811 C408.5107463 134.30209095 410.46766914 136.26275 412.42382812 138.22460938 C413.79632776 139.59254379 415.16919751 140.96010695 416.54241943 142.32731628 C419.41191291 145.18789652 422.27568702 148.0540566 425.13574219 150.92407227 C428.79455056 154.59438185 432.46899441 158.24857497 436.14810562 161.89851856 C438.98449847 164.71653646 441.81149239 167.54383821 444.63585663 170.37390709 C445.98672365 171.72492708 447.34068351 173.07286214 448.69782257 174.41758156 C450.5957547 176.30057774 452.48041407 178.19596009 454.36230469 180.0949707 C454.92026733 180.64326538 455.47822998 181.19156006 456.05310059 181.75646973 C460.66567784 186.45700897 462.9783901 190.77426089 463.72070312 197.45507812 C463.39242821 205.07680841 458.67488441 210.7184288 453.3972168 215.77832031 C452.81956573 216.34852402 452.24191467 216.91872772 451.64675903 217.50621033 C450.40331408 218.73121736 449.15530391 219.95160487 447.90315819 221.16771698 C445.9230138 223.09181419 443.95639437 225.02886056 441.99275208 226.9697876 C437.12023097 231.78108588 432.22778939 236.57193001 427.33154297 241.35906982 C423.18025508 245.41842583 419.03884855 249.48733109 414.9113102 253.57083893 C412.9714039 255.48202068 411.01743725 257.37802332 409.06278992 259.27410889 C407.88183574 260.44010486 406.70160416 261.60683331 405.5222168 262.77441406 C404.97321213 263.29915817 404.42420746 263.82390228 403.85856628 264.36454773 C402.19279127 265.97525104 402.19279127 265.97525104 400.28320312 268.51757812 C400.36038239 271.57676078 401.34896567 272.60964569 403.15820312 275.14257812 C408.1759139 283.11188347 409.51812558 291.83870585 407.81445312 301.05273438 C405.2681635 310.85898073 399.17025895 318.08260733 392.11264038 325.08927917 C391.41360962 325.79510661 390.71457885 326.50093404 389.99436533 327.22815019 C387.67109548 329.57027466 385.33737494 331.90168328 383.00341797 334.2331543 C381.32684528 335.91871168 379.65088673 337.6048801 377.97549438 339.29161072 C373.43703236 343.85650114 368.88894946 348.41168602 364.3382144 352.96433806 C361.49209979 355.81193935 358.64868465 358.66222543 355.80589676 361.51314735 C346.39093175 370.95449876 336.96973731 380.38956973 327.54044263 389.81661006 C327.03322449 390.32370833 326.52600635 390.8308066 326.00341797 391.35327148 C325.49557296 391.86099385 324.98772796 392.36871621 324.46449371 392.8918241 C316.23527528 401.11982326 308.02112673 409.36268635 299.81369345 417.6124111 C291.36780879 426.10146871 282.91070442 434.57920632 274.44191134 443.04541188 C269.69489667 447.79143363 264.95285296 452.54217789 260.22227097 457.30458641 C255.77202166 461.78395854 251.30749028 466.24859333 246.83178329 470.70252419 C245.19643826 472.33474182 243.56615163 473.97204661 241.94149017 475.61489868 C221.33698592 496.43499241 221.33698592 496.43499241 205.72070312 496.83007812 C190.84764043 496.66703602 181.53819186 488.07943238 171.55981445 478.06884766 C170.31189873 476.82859833 170.31189873 476.82859833 169.03877258 475.56329346 C166.30910264 472.84744566 163.58684607 470.12431205 160.86523438 467.40039062 C159.44290426 465.98037373 158.01998032 464.56095374 156.5970127 463.14157569 C152.13044995 458.68606682 147.66918457 454.22530269 143.21118164 449.76123047 C138.62782451 445.17182914 134.03535377 440.59169464 129.43834859 436.01596749 C125.47516139 432.07044455 121.51785775 428.11908664 117.56511706 424.16309822 C115.21145968 421.80763639 112.85505993 419.45511342 110.49418068 417.10687637 C107.86167512 414.48674551 105.23893756 411.85719933 102.6184082 409.22509766 C101.84478943 408.45912262 101.07117065 407.69314758 100.27410889 406.90396118 C91.90132834 398.44949068 86.43590998 389.71503844 86.28320312 377.51757812 C86.94715398 370.96106338 88.64799273 365.55446057 91.28320312 359.51757812 C89.98996124 359.52868118 88.69671936 359.53978424 87.36428833 359.55122375 C75.1530808 359.65275681 62.94195938 359.72761914 50.73042488 359.77663898 C44.45291623 359.80268823 38.17574944 359.83800185 31.8984375 359.89477539 C25.83595309 359.94926037 19.7737967 359.97903379 13.71108627 359.99196434 C11.40269689 360.00117453 9.09432464 360.01915988 6.78607559 360.04622841 C3.54270439 360.08273665 0.30067382 360.08751422 -2.94287109 360.08520508 C-3.88874588 360.10318146 -4.83462067 360.12115784 -5.80915833 360.13967896 C-13.38450084 360.08164746 -19.71621097 357.89914747 -25.55923271 352.96022511 C-32.92781243 345.1408505 -33.15572489 335.7038515 -33.10447693 325.46803284 C-33.10986247 324.17291257 -33.115248 322.87779231 -33.12079674 321.54342598 C-33.13519641 317.96869432 -33.13102394 314.3941943 -33.12362993 310.81945026 C-33.11888694 306.95637364 -33.13141804 303.09334631 -33.14164734 299.23028564 C-33.15881827 291.67020642 -33.15967894 284.11021038 -33.15443444 276.55011673 C-33.15038851 270.40385992 -33.15184131 264.25762764 -33.15718269 258.11137199 C-33.15793112 257.23568912 -33.15867954 256.36000624 -33.15945064 255.45778752 C-33.16098216 253.67868964 -33.1625205 251.89959176 -33.16406561 250.12049388 C-33.17778435 233.44747878 -33.17235724 216.77451065 -33.16088039 200.10149663 C-33.15094754 184.85747511 -33.1638907 169.61357497 -33.18781459 154.36957217 C-33.21221273 138.70499443 -33.22181177 123.0404732 -33.21516186 107.37587684 C-33.21167138 98.58618161 -33.21389048 89.79657972 -33.23141289 81.00689888 C-33.24614376 73.5249283 -33.2467587 66.0431168 -33.22934198 58.56114931 C-33.22083706 54.74617128 -33.21866976 50.93147733 -33.23399353 47.11651421 C-33.25042074 42.97548219 -33.23567675 38.83513386 -33.21800232 34.69410706 C-33.22760733 33.49594394 -33.23721233 32.29778082 -33.2471084 31.06330973 C-33.16831329 22.08253344 -31.62147193 14.54271693 -25.59179688 7.64257812 C-18.20503895 0.97992081 -9.58812042 -0.07447839 0 0 Z " fill="#8CD0FD" transform="translate(40.716796875,7.482421875)"/>
<path d="M0 0 C1.36125 1.175625 1.36125 1.175625 2.75 2.375 C2.75 3.035 2.75 3.695 2.75 4.375 C3.63219884 4.76963959 3.63219884 4.76963959 4.53221989 5.1722517 C6.8544938 6.43166916 8.37394643 7.75252112 10.23448181 9.61897278 C10.90588699 10.28762863 11.57729218 10.95628448 12.26904297 11.64520264 C13.3577771 12.7447226 13.3577771 12.7447226 14.46850586 13.86645508 C15.62776329 15.02527443 15.62776329 15.02527443 16.81044006 16.20750427 C19.36667649 18.765135 21.91575105 21.32978219 24.46484375 23.89453125 C26.2403315 25.67375054 28.01626238 27.45252772 29.7926178 29.23088074 C33.99410189 33.43922422 38.19111202 37.65199517 42.38597447 41.86693639 C47.60892869 47.11435692 52.83870728 52.35495922 58.06835938 57.59570312 C65.74783614 65.29277082 73.4238208 72.99330071 81.09542847 80.69821167 C81.76965347 81.375327 82.44387848 82.05244232 83.13853455 82.75007629 C83.7621179 83.37744501 84.38570126 84.00481373 85.02818108 84.65119362 C86.11024227 85.73450381 87.19716113 86.81300561 88.29098701 87.88443565 C91.00501557 90.54623242 92.84502164 92.93608394 94.5 96.375 C95.11101562 97.6125 95.11101562 97.6125 95.734375 98.875 C99.39098843 107.87589459 98.37864969 117.55621073 94.75 126.375 C91.16715434 132.66971007 86.6959524 137.86712042 81.57943726 142.94670105 C80.88040649 143.65252848 80.18137573 144.35835592 79.46116221 145.08557206 C77.13789235 147.42769653 74.80417182 149.75910516 72.47021484 152.09057617 C70.79364216 153.77613355 69.1176836 155.46230198 67.44229126 157.14903259 C62.90382923 161.71392301 58.35574634 166.26910789 53.80501127 170.82175994 C50.95889667 173.66936123 48.11548152 176.5196473 45.27269363 179.37056923 C35.85772863 188.81192064 26.43653418 198.2469916 17.00723951 207.67403194 C16.50002137 208.18113021 15.99280323 208.68822848 15.47021484 209.21069336 C14.96236984 209.71841572 14.45452483 210.22613809 13.93129058 210.74924598 C5.70207215 218.97724513 -2.5120764 227.22010823 -10.71950968 235.46983298 C-19.16539434 243.95889058 -27.6224987 252.43662819 -36.09129179 260.90283376 C-40.83830646 265.64885551 -45.58035017 270.39959976 -50.31093216 275.16200829 C-54.76118147 279.64138042 -59.22571285 284.10601521 -63.70141983 288.55994606 C-65.33676486 290.19216369 -66.9670515 291.82946848 -68.59171295 293.47232056 C-89.1962172 314.29241428 -89.1962172 314.29241428 -104.8125 314.6875 C-119.6855627 314.5244579 -128.99501126 305.93685426 -138.97338867 295.92626953 C-139.80533249 295.09943665 -140.63727631 294.27260376 -141.49443054 293.42071533 C-144.22410049 290.70486754 -146.94635705 287.98173393 -149.66796875 285.2578125 C-151.09029886 283.8377956 -152.51322281 282.41837561 -153.93619043 280.99899757 C-158.40275318 276.54348869 -162.86401856 272.08272456 -167.32202148 267.61865234 C-171.90537862 263.02925102 -176.49784935 258.44911651 -181.09485453 253.87338936 C-185.05804173 249.92786643 -189.01534537 245.97650851 -192.96808606 242.02052009 C-195.32174344 239.66505826 -197.67814319 237.31253529 -200.03902245 234.96429825 C-202.671528 232.34416739 -205.29426556 229.7146212 -207.91479492 227.08251953 C-208.6884137 226.31654449 -209.46203247 225.55056946 -210.25909424 224.76138306 C-218.63187479 216.30691255 -224.09729314 207.57246031 -224.25 195.375 C-223.59600569 188.91680617 -222.09665696 183.19770741 -219.25 177.375 C-218.59 177.375 -217.93 177.375 -217.25 177.375 C-216.98016672 176.7805305 -216.71033344 176.18606101 -216.4323234 175.57357728 C-215.25386772 173.38219217 -214.08081141 171.95232227 -212.33282566 170.19776344 C-211.73299982 169.59087201 -211.13317397 168.98398057 -210.51517159 168.35869849 C-209.525464 167.37261353 -209.525464 167.37261353 -208.51576233 166.36660767 C-207.81536014 165.6609688 -207.11495796 164.95532994 -206.39333147 164.22830808 C-204.0392104 161.85915549 -201.67796476 159.4972355 -199.31665039 157.13525391 C-197.62939632 155.44038026 -195.9425469 153.74510369 -194.256073 152.04945374 C-189.66764129 147.43904489 -185.0726298 142.83523991 -180.47572637 138.23328066 C-177.6029725 135.35726772 -174.73185441 132.47962568 -171.86108208 129.60163498 C-163.9061854 121.62716965 -155.94970824 113.654291 -147.98647404 105.68815041 C-147.22213506 104.92353007 -147.22213506 104.92353007 -146.44235488 104.14346286 C-145.40941139 103.11015312 -144.37646662 102.07684466 -143.34352059 101.04353745 C-142.83079112 100.53062517 -142.31806165 100.01771289 -141.78979492 99.48925781 C-141.27643498 98.97571733 -140.76307505 98.46217684 -140.23415875 97.93307452 C-131.92587844 89.62125654 -123.62939213 81.29777446 -115.33807416 72.96903916 C-106.81693818 64.40975872 -98.2864132 55.85993162 -89.74633402 47.31955087 C-84.95508053 42.52771404 -80.16781882 37.73204021 -75.39079475 32.92601395 C-70.89321437 28.40221968 -66.38375616 23.890609 -61.86504745 19.38792229 C-60.21241577 17.73710264 -58.56401412 16.08203524 -56.92028999 14.42234612 C-40.68078609 -1.96516943 -22.64256676 -15.41524242 0 0 Z " fill="#4B84DC" transform="translate(351.25,189.625)"/>
<path d="M0 0 C1.12656509 -0.00700928 2.25313019 -0.01401855 3.41383362 -0.02124023 C7.11012975 -0.03873802 10.80565021 -0.02722591 14.50195312 -0.01367188 C17.08687486 -0.01636913 19.67179559 -0.02025349 22.25671387 -0.02526855 C27.66327561 -0.03115253 33.06954987 -0.02302211 38.47607422 -0.00390625 C44.70308696 0.01785808 50.92957562 0.01080495 57.15657568 -0.01121187 C63.17729696 -0.03163726 69.19776443 -0.02936596 75.21852112 -0.01768494 C77.76689224 -0.01502582 80.31527683 -0.01825854 82.8636322 -0.02760315 C86.43157856 -0.03781681 89.99853331 -0.02219864 93.56640625 0 C94.60877945 -0.00809692 95.65115265 -0.01619385 96.72511292 -0.02453613 C105.2322943 0.07300381 112.70591309 1.80082383 119.03710938 7.75976562 C122.99310727 12.10129097 126.33564336 16.89834147 129.65625 21.73242188 C133.89962285 27.64263227 138.96288463 32.11967278 146.28320312 33.51757812 C148.87693708 33.61457169 151.44378498 33.65938466 154.03741455 33.65560913 C154.82331333 33.65843041 155.60921211 33.66125169 156.418926 33.66415846 C159.05501012 33.6724981 161.6910522 33.67384217 164.32714844 33.67529297 C166.21621316 33.67996168 168.10527675 33.68510534 169.99433899 33.69068909 C174.06436304 33.70196831 178.13437978 33.71040337 182.20441437 33.71680832 C188.64230576 33.72748994 195.08014464 33.74773542 201.51800537 33.76992798 C219.82561842 33.83184622 238.13322844 33.88585801 256.44091797 33.91894531 C266.55060156 33.93729666 276.66019721 33.96623888 286.76981616 34.00695002 C292.11883669 34.02801071 297.46774644 34.04347599 302.81681061 34.04575729 C307.84998625 34.04790641 312.88293124 34.06380283 317.91603661 34.09014702 C319.7606574 34.0973313 321.60530617 34.09944521 323.44993782 34.09604454 C325.97391559 34.09213559 328.49716181 34.10664992 331.02105713 34.12557983 C331.74597894 34.12005014 332.47090075 34.11452044 333.21778989 34.10882318 C340.7231938 34.2055726 347.47688753 36.72105654 353.28320312 41.51757812 C361.86159677 51.71724713 361.56997176 62.78888282 361.47851562 75.49023438 C361.47477878 77.0243664 361.47193498 78.55850083 361.46994019 80.09263611 C361.46235655 84.1022721 361.44275427 88.11175988 361.42053223 92.12133789 C361.39995934 96.22410071 361.39091416 100.32688781 361.38085938 104.4296875 C361.35950263 112.45905188 361.32543151 120.48829649 361.28320312 128.51757812 C360.95320313 128.51757812 360.62320312 128.51757812 360.28320312 128.51757812 C360.12464844 127.80472656 359.96609375 127.091875 359.80273438 126.35742188 C357.89348325 118.51999874 355.74340918 113.18482029 349.28320312 108.20507812 C343.97279424 105.21797313 339.54148978 104.17142766 333.47070312 103.89257812 C332.77783203 103.85390625 332.08496094 103.81523438 331.37109375 103.77539062 C329.67553298 103.68184244 327.97940601 103.59865449 326.28320312 103.51757812 C326.25814697 102.65479248 326.23309082 101.79200684 326.20727539 100.90307617 C326.11208928 97.69934044 326.01285869 94.49576276 325.91088867 91.29223633 C325.86760094 89.9062183 325.82592149 88.52014906 325.78588867 87.1340332 C325.72803729 85.14066014 325.66390536 83.14747248 325.59960938 81.15429688 C325.56295166 79.95506592 325.52629395 78.75583496 325.48852539 77.52026367 C325.40587288 74.46763464 325.40587288 74.46763464 324.28320312 71.51757812 C321.24346469 70.50433198 319.20173758 70.38934126 316.02137852 70.38335705 C314.92408596 70.3788992 313.8267934 70.37444136 312.69624954 70.36984843 C310.8808134 70.37012497 310.8808134 70.37012497 309.02870178 70.3704071 C307.74672533 70.36673042 306.46474888 70.36305373 305.14392465 70.35926563 C301.57832941 70.34924185 298.01275101 70.34552825 294.44714367 70.34287632 C290.60454093 70.33897454 286.76195153 70.3293963 282.9193573 70.32066345 C273.63760649 70.30089839 264.3558546 70.29083407 255.07408801 70.28193566 C250.70578306 70.27755398 246.33747933 70.27218696 241.96917534 70.26694679 C227.45362252 70.24993662 212.93807045 70.23544064 198.42250919 70.22819805 C194.65545208 70.22628809 190.88839498 70.22436777 187.12133789 70.22241211 C186.1850306 70.22192837 185.24872331 70.22144463 184.28404307 70.22094623 C169.10349427 70.21263909 153.9230241 70.18728971 138.74250967 70.15483143 C123.16630286 70.12179777 107.59013606 70.10375276 92.01389402 70.10055381 C83.26452885 70.09838559 74.51527844 70.08959116 65.76594734 70.06409264 C58.31771152 70.04243624 50.86961833 70.03431025 43.4213546 70.04405942 C39.61930141 70.04861853 35.81754282 70.04662509 32.01552963 70.02729797 C27.89837287 70.00654893 23.7818756 70.01660477 19.66468811 70.02983093 C18.45662807 70.01886169 17.24856803 70.00789244 16.00390011 69.99659079 C14.9039998 70.00517169 13.80409949 70.01375258 12.67086887 70.0225935 C11.24480032 70.02112829 11.24480032 70.02112829 9.7899223 70.01963347 C6.53807111 70.66559411 5.36194128 71.99522151 3.28320312 74.51757812 C1.93871579 77.20655279 2.12124548 79.33349462 2.07788086 82.34423828 C2.05793564 83.56535309 2.03799042 84.7864679 2.0174408 86.04458618 C2.00045656 87.38193636 1.98357775 88.71928788 1.96679688 90.05664062 C1.9462271 91.42142365 1.92523062 92.78620031 1.90382385 94.15097046 C1.84860553 97.74465785 1.79919526 101.33840272 1.75097656 104.93218994 C1.70075976 108.59872559 1.64507464 112.26517769 1.58984375 115.93164062 C1.48226513 123.12688239 1.38081955 130.32219358 1.28320312 137.51757812 C-0.13593384 137.58779175 -0.13593384 137.58779175 -1.58374023 137.65942383 C-2.83292236 137.73249756 -4.08210449 137.80557129 -5.36914062 137.88085938 C-6.60398193 137.94829346 -7.83882324 138.01572754 -9.11108398 138.08520508 C-15.83563122 138.89156794 -20.69859782 141.63100074 -25.59179688 146.20507812 C-28.30209722 150.42995808 -30.0475083 154.79880706 -31.71679688 159.51757812 C-32.04679687 159.51757812 -32.37679687 159.51757812 -32.71679688 159.51757812 C-32.81039583 141.69736262 -32.88085211 123.87721126 -32.92404556 106.05680275 C-32.94463751 97.78176258 -32.97269333 89.50687549 -33.01855469 81.23193359 C-33.058526 74.0162916 -33.08425415 66.80076052 -33.09315085 59.58501089 C-33.09834828 55.76717286 -33.11049292 51.94965203 -33.1397171 48.13191605 C-33.16704947 44.53184501 -33.17520638 40.93221909 -33.1692276 37.33205414 C-33.17083725 35.39445795 -33.19226624 33.45690924 -33.21447754 31.5194397 C-33.17191982 22.42611775 -31.82741063 14.58735338 -25.59179688 7.64257812 C-18.20503895 0.97992081 -9.58812042 -0.07447839 0 0 Z " fill="#69ADFD" transform="translate(40.716796875,7.482421875)"/>
<path d="M0 0 C1.9244696 -0.01169993 1.9244696 -0.01169993 3.88781738 -0.02363622 C7.44718413 -0.04452109 11.00588115 -0.0341876 14.5652504 -0.01870513 C18.4044678 -0.00740199 22.24356924 -0.02484913 26.08276367 -0.03860474 C33.60300132 -0.06085288 41.12298964 -0.05602902 48.64323711 -0.04154153 C54.75436641 -0.03025546 60.86542577 -0.02871564 66.9765625 -0.03416061 C67.84590487 -0.03492678 68.71524723 -0.03569294 69.6109333 -0.03648233 C71.376915 -0.03808093 73.14289667 -0.039702 74.90887833 -0.04134528 C91.47350718 -0.0556074 108.03799774 -0.03920283 124.60260391 -0.01234345 C138.81977396 0.00999576 153.03673989 0.00611576 167.25390625 -0.01693726 C183.75873171 -0.04368712 200.26343592 -0.05423406 216.76828003 -0.03887594 C218.52781167 -0.03728317 220.28734332 -0.03571132 222.046875 -0.03416061 C223.34550319 -0.03300355 223.34550319 -0.03300355 224.67036629 -0.03182311 C230.77506543 -0.02750366 236.87968775 -0.03479792 242.984375 -0.04655838 C250.42271214 -0.0605729 257.86078543 -0.05680568 265.29909229 -0.03015466 C269.0952437 -0.01700213 272.89095499 -0.01188802 276.68710327 -0.02840042 C280.79959885 -0.04601849 284.91098054 -0.02500193 289.0234375 0 C290.22722046 -0.01115361 291.43100342 -0.02230722 292.67126465 -0.03379881 C300.7157782 0.061499 300.7157782 0.061499 304.75675964 2.97274208 C306.99320974 6.36531348 307.08909162 8.42218991 307 12.46694946 C306.98388672 13.75923462 306.96777344 15.05151978 306.95117188 16.38296509 C306.90940149 17.73779978 306.86707684 19.09261749 306.82421875 20.44741821 C306.79911944 21.82172688 306.77630911 23.19607937 306.75585938 24.57046509 C306.69698336 27.92639797 306.61478295 31.28009911 306.51171875 34.63491821 C305.24353302 34.63856384 303.97534729 34.64220947 302.66873169 34.64596558 C290.69275204 34.68297412 278.71702814 34.74081114 266.74124336 34.81882095 C260.58497202 34.85825922 254.42884293 34.8904658 248.27246094 34.90591431 C242.32653134 34.92110463 236.38099296 34.95559315 230.43523788 35.00322723 C228.17159305 35.0180164 225.90789236 35.02595781 223.64419937 35.02680206 C220.46306338 35.02918081 217.28300057 35.0563348 214.10205078 35.08901978 C213.17487747 35.08398941 212.24770416 35.07895905 211.29243469 35.07377625 C203.72504337 35.19336183 196.82209571 36.91972046 190.8828125 41.79116821 C190.24472656 42.56460571 189.60664063 43.33804321 188.94921875 44.13491821 C187.85287109 45.44009399 187.85287109 45.44009399 186.734375 46.77163696 C184.39195071 49.78920639 182.13643632 52.86024232 179.88671875 55.94741821 C175.34233316 62.11479866 170.92725872 66.22602124 163.51171875 68.63491821 C160.98193688 68.8157931 158.56611534 68.8967732 156.03898621 68.87542725 C155.2955911 68.8771361 154.552196 68.87884495 153.78627378 68.88060558 C151.30036963 68.88389449 148.81473662 68.87290674 146.32885742 68.86196899 C144.54489142 68.86140475 142.76092496 68.8617217 140.97695923 68.862854 C136.13645991 68.863428 131.29605963 68.85166599 126.45558333 68.83770609 C121.39603791 68.82520665 116.33649024 68.82402885 111.27693176 68.82165527 C101.69705721 68.8154382 92.11722829 68.79902428 82.53737384 68.77895629 C71.63057941 68.75660439 60.72378281 68.74560564 49.81697118 68.73556542 C27.38186174 68.71465827 4.9467928 68.67947784 -17.48828125 68.63491821 C-17.60424974 60.507184 -17.69303302 52.37979673 -17.74734211 44.25143909 C-17.77341107 40.47686811 -17.80875754 36.70286408 -17.86547852 32.92861938 C-17.91989806 29.2846134 -17.94972211 25.6411519 -17.96266747 21.99677086 C-17.97188982 20.60806394 -17.98989978 19.21938607 -18.01693153 17.83091164 C-18.05334196 15.88282077 -18.05532464 13.9341793 -18.0559082 11.98574829 C-18.06701126 10.87766312 -18.07811432 9.76957794 -18.08955383 8.62791443 C-17.48828125 5.63491821 -17.48828125 5.63491821 -15.73332214 2.77767372 C-10.69800109 -0.54723413 -5.90940553 -0.05475339 0 0 Z " fill="#E7EBEF" transform="translate(60.48828125,76.36508178710938)"/>
<path d="M0 0 C0.99644531 -0.02835937 1.99289062 -0.05671875 3.01953125 -0.0859375 C10.01807186 0.93234584 14.83012363 5.57430814 19.62597656 10.40942383 C20.22690125 11.00348526 20.82782593 11.59754669 21.44696045 12.20960999 C23.41504318 14.15951283 25.37196601 16.12017188 27.328125 18.08203125 C28.70062464 19.44996567 30.07349438 20.81752883 31.44671631 22.18473816 C34.31620978 25.0453184 37.17998389 27.91147848 40.04003906 30.78149414 C43.69884744 34.45180372 47.37329129 38.10599685 51.0524025 41.75594044 C53.88879534 44.57395834 56.71578926 47.40126009 59.5401535 50.23132896 C60.89102052 51.58234896 62.24498039 52.93028402 63.60211945 54.27500343 C65.50005157 56.15799961 67.38471094 58.05338197 69.26660156 59.95239258 C69.82456421 60.50068726 70.38252686 61.04898193 70.95739746 61.6138916 C75.56997472 66.31443085 77.88268697 70.63168276 78.625 77.3125 C78.2934914 84.98564857 73.49585801 90.65938894 68.22558594 95.79101562 C67.6397876 96.37739807 67.05398926 96.96378052 66.45043945 97.56793213 C64.53358832 99.48202168 62.60301804 101.38159019 60.671875 103.28125 C59.33150315 104.61415264 57.9920183 105.94794778 56.65338135 107.28259277 C53.14408445 110.7766871 49.62293938 114.25859639 46.09912109 117.73803711 C42.49889798 121.29719149 38.91010622 124.86783214 35.3203125 128.4375 C28.28713217 135.42790439 21.24137119 142.40547918 14.1875 149.375 C11.11071319 148.00292243 9.00469358 146.44007306 6.63140869 144.05941772 C5.94436356 143.37512192 5.25731842 142.69082611 4.54945374 141.98579407 C3.80642502 141.2355748 3.0633963 140.48535553 2.29785156 139.71240234 C1.11191658 138.52690544 1.11191658 138.52690544 -0.09797668 137.31745911 C-2.71071109 134.70333109 -5.31628954 132.08218956 -7.921875 129.4609375 C-9.73176192 127.64732057 -11.54209083 125.83414463 -13.35284424 124.02139282 C-17.63112071 119.73625966 -21.90491301 115.44670349 -26.17656636 111.15497172 C-31.04081018 106.26836221 -35.91074386 101.3874401 -40.78116179 96.50698543 C-50.79794799 86.46930211 -60.80757421 76.42450407 -70.8125 66.375 C-69.20442196 62.97822107 -67.43250723 60.75672401 -64.74926758 58.10058594 C-63.49204643 56.84843292 -63.49204643 56.84843292 -62.20942688 55.57098389 C-61.30113632 54.67615295 -60.39284576 53.78132202 -59.45703125 52.859375 C-58.02800872 51.43830239 -56.5989889 50.01722705 -55.1701231 48.59599686 C-53.16644015 46.60543846 -51.15825947 44.6194481 -49.15002441 42.63348389 C-45.17534983 38.70191892 -41.20722299 34.7637785 -37.24258995 30.82209015 C-35.86760869 29.45719155 -34.48900359 28.09594662 -33.11030579 26.73480225 C-28.64448762 22.30313983 -24.32344484 17.81867508 -20.23678589 13.03347778 C-18.28853924 10.76488564 -16.22955154 8.62344338 -14.125 6.5 C-13.39925781 5.76007813 -12.67351562 5.02015625 -11.92578125 4.2578125 C-8.04903734 0.80385582 -5.1787877 0.06647994 0 0 Z " fill="#E7EBEE" transform="translate(425.8125,127.625)"/>
<path d="M0 0 C3.0625 2.5625 3.0625 2.5625 5 6 C4.99522814 10.33252965 4.36381849 13.00378944 1.40795898 16.11450195 C0.2841305 17.17027483 -0.85407589 18.21088795 -2.00390625 19.23828125 C-3.23162074 20.39986139 -4.45881853 21.56198783 -5.68554688 22.72460938 C-7.62161577 24.52419364 -9.56495926 26.31473957 -11.51928711 28.09448242 C-19.00166845 34.46984864 -19.00166845 34.46984864 -23.90966797 42.69677734 C-23.96812007 45.31470715 -23.53878555 47.43927593 -23 50 C-22.64282775 51.93331381 -22.28944812 53.86733179 -21.93969727 55.80200195 C-21.67431908 57.26800591 -21.67431908 57.26800591 -21.40357971 58.7636261 C-21.20380775 59.87063118 -21.20380775 59.87063118 -21 61 C-20.25275665 60.25053604 -19.50551331 59.50107208 -18.73562622 58.72889709 C-11.7045393 51.67756739 -4.67083532 44.62885767 2.36546135 37.58272648 C5.98308738 33.95987452 9.59977431 30.33609517 13.21435547 26.71020508 C16.70049933 23.21322208 20.1890569 19.71866407 23.6793251 16.22579765 C25.01269509 14.89057528 26.34518241 13.55447089 27.67678452 12.21748543 C29.53726268 10.34978326 31.40081115 8.48519849 33.26513672 6.62133789 C33.81899048 6.06388885 34.37284424 5.50643982 34.94348145 4.93209839 C39.74670538 0.14188241 39.74670538 0.14188241 44.3125 -0.375 C48 0 48 0 50.9375 2.125 C53 5 53 5 53.75 7.8125 C52.05038293 15.03587257 44.33325846 20.80964306 39.16259766 25.93505859 C38.51944611 26.57674988 37.87629456 27.21844116 37.21365356 27.87957764 C35.83273276 29.2567251 34.4506592 30.63271746 33.06752396 32.00764084 C30.87995552 34.18234389 28.69561584 36.360245 26.51205444 38.53897095 C21.88585082 43.1538091 17.25570313 47.76467743 12.625 52.375 C7.23629775 57.7401029 1.84922336 63.10681967 -3.53367996 68.47774124 C-5.68826137 70.62582971 -7.84582471 72.7708925 -10.00350952 74.91586304 C-11.31547454 76.22419792 -12.62730071 77.53267206 -13.93896484 78.84130859 C-14.84279907 79.73739334 -14.84279907 79.73739334 -15.76489258 80.65158081 C-18.74940667 83.54667683 -18.74940667 83.54667683 -21 87 C-13.87778687 89.28246702 -7.2147223 90.54767898 0 88 C9.55548087 81.78386344 17.20217298 72.134666 24.62768555 63.60791016 C27.47641214 60.47627514 28.14401837 60.11305418 32.3125 59.5625 C36 60 36 60 39 62.5625 C41 66 41 66 41.02807617 69.26855469 C39.66031586 74.23289773 37.19029317 76.62520612 33.55078125 80.140625 C32.90054489 80.78948669 32.25030853 81.43834839 31.58036804 82.10687256 C30.20624205 83.47196115 28.82485728 84.82977691 27.43676758 86.18066406 C25.32120279 88.24152225 23.23058105 90.32532168 21.14257812 92.4140625 C19.80088431 93.7410056 18.45782896 95.06657373 17.11328125 96.390625 C16.49117264 97.00939514 15.86906403 97.62816528 15.22810364 98.26568604 C10.01072632 103.3157802 5.43445146 106.43073942 -2.0625 106.375 C-9.34042714 106.23533829 -16.44655535 105.22151875 -23.62719727 104.06787109 C-25.32165662 103.79833071 -27.01921002 103.54742259 -28.71948242 103.31738281 C-30.65058905 103.04862801 -32.56992288 102.69727945 -34.484375 102.328125 C-40.5458354 103.48653743 -44.09393299 107.96700397 -48.3125 112.25 C-49.21806641 113.10335937 -50.12363281 113.95671875 -51.05664062 114.8359375 C-56.62482213 120.39996674 -59.09995083 124.49503914 -59.7199707 132.4050293 C-60.22811781 137.11391821 -62.54655813 139.7227329 -66.0625 142.8125 C-70.95918008 145.81369102 -76.45187043 145.78718346 -82 145 C-86.70240739 142.85208145 -89.38346416 140.04040422 -92 135.625 C-93.5472067 130.01637571 -94.08786712 125.52996672 -91.3125 120.25 C-88.67193145 116.53893069 -86.0745454 114.0372727 -82 112 C-80.30041308 111.93452229 -78.60022997 111.8841002 -76.89990234 111.84204102 C-70.45868626 111.28721138 -67.19482359 108.88738383 -62.6015625 104.52734375 C-61.87491394 103.86114014 -61.14826538 103.19493652 -60.39959717 102.50854492 C-58.10004209 100.35689699 -55.85717115 98.15887566 -53.625 95.9375 C-52.86664856 95.19202911 -52.10829712 94.44655823 -51.32696533 93.67849731 C-41.07387717 83.91027086 -41.07387717 83.91027086 -36.484375 71.03125 C-36.88068977 65.94355411 -38.29421142 61.29827962 -40.10888672 56.54638672 C-41.44648169 52.72416327 -41.73961871 49.01928446 -41.9375 45 C-42.04964844 43.824375 -42.16179687 42.64875 -42.27734375 41.4375 C-41.64053939 33.54471356 -36.70805725 28.07541036 -31.328125 22.65625 C-30.68687683 22.00168823 -30.04562866 21.34712646 -29.38494873 20.67272949 C-28.03532807 19.30298604 -26.68035494 17.9384976 -25.3203125 16.57910156 C-23.24820774 14.49820013 -21.2102408 12.38733466 -19.171875 10.2734375 C-17.85092405 8.94075704 -16.52807001 7.60995965 -15.203125 6.28125 C-14.29956268 5.33457458 -14.29956268 5.33457458 -13.37774658 4.36877441 C-8.92480825 0.00917532 -6.22468892 -0.91964864 0 0 Z " fill="#3A6AAF" transform="translate(304,275)"/>
<path d="M0 0 C6.00970237 1.22231235 9.48089313 5.24159264 13.4296875 9.73046875 C14.90104646 12.09286808 14.97063569 13.0968279 14.5625 15.8125 C14.47742188 16.48410156 14.39234375 17.15570313 14.3046875 17.84765625 C13.53285875 20.22664739 12.67115116 21.23496368 10.6875 22.75 C7.52711746 23.73999935 4.8670654 23.63708878 1.6875 22.75 C-2.24656944 19.75433245 -6.07796424 16.21907152 -8.3125 11.75 C-8.84757099 7.7369676 -8.64301628 6.21071967 -6.25 2.875 C-3.3125 0.75 -3.3125 0.75 0 0 Z " fill="#BAC3CE" transform="translate(450.3125,196.25)"/>
<path d="M0 0 C6.00970237 1.22231235 9.48089313 5.24159264 13.4296875 9.73046875 C14.90104646 12.09286808 14.97063569 13.0968279 14.5625 15.8125 C14.47742188 16.48410156 14.39234375 17.15570313 14.3046875 17.84765625 C13.53285875 20.22664739 12.67115116 21.23496368 10.6875 22.75 C7.52711746 23.73999935 4.8670654 23.63708878 1.6875 22.75 C-2.24656944 19.75433245 -6.07796424 16.21907152 -8.3125 11.75 C-8.84757099 7.7369676 -8.64301628 6.21071967 -6.25 2.875 C-3.3125 0.75 -3.3125 0.75 0 0 Z " fill="#BAC3CE" transform="translate(420.3125,166.25)"/>
</svg>
